{
    "asset" : {
        "generator" : "Khronos glTF Blender I/O v3.3.32",
        "version" : "2.0"
    },
    "extensionsUsed" : [
        "KHR_materials_specular",
        "KHR_materials_ior"
    ],
    "scene" : 0,
    "scenes" : [
        {
            "name" : "Scene",
            "nodes" : [
                0
            ]
        }
    ],
    "nodes" : [
        {
            "mesh" : 0,
            "name" : "Rumput_Laut",
            "rotation" : [
                0.7071068286895752,
                0,
                0,
                0.7071067094802856
            ],
            "scale" : [
                0.19379213452339172,
                0.19379214942455292,
                0.19379214942455292
            ],
            "translation" : [
                0,
                1.324249267578125,
                -38.63671875
            ]
        }
    ],
    "materials" : [
        {
            "doubleSided" : true,
            "name" : "abu 2",
            "pbrMetallicRoughness" : {
                "baseColorFactor" : [
                    0.04430174455046654,
                    0.07297039777040482,
                    0.039481449872255325,
                    1
                ],
                "metallicFactor" : 0,
                "roughnessFactor" : 0.5
            }
        },
        {
            "doubleSided" : true,
            "extensions" : {
                "KHR_materials_specular" : {
                    "specularColorFactor" : [
                        0,
                        0,
                        0
                    ]
                },
                "KHR_materials_ior" : {
                    "ior" : 1.4500000476837158
                }
            },
            "name" : "hiu",
            "pbrMetallicRoughness" : {
                "baseColorFactor" : [
                    0.3493245244026184,
                    0.3493245244026184,
                    0.3493245244026184,
                    1
                ],
                "metallicFactor" : 0
            }
        }
    ],
    "meshes" : [
        {
            "name" : "Rumput_Laut",
            "primitives" : [
                {
                    "attributes" : {
                        "POSITION" : 0,
                        "NORMAL" : 1,
                        "TEXCOORD_0" : 2
                    },
                    "indices" : 3,
                    "material" : 0
                },
                {
                    "attributes" : {
                        "POSITION" : 4,
                        "NORMAL" : 5,
                        "TEXCOORD_0" : 6
                    },
                    "indices" : 7,
                    "material" : 1
                }
            ]
        }
    ],
    "accessors" : [
        {
            "bufferView" : 0,
            "componentType" : 5126,
            "count" : 8546,
            "max" : [
                39.85835266113281,
                229.42208862304688,
                5.827096939086914
            ],
            "min" : [
                -29.217071533203125,
                171.78392028808594,
                -115.88672637939453
            ],
            "type" : "VEC3"
        },
        {
            "bufferView" : 1,
            "componentType" : 5126,
            "count" : 8546,
            "type" : "VEC3"
        },
        {
            "bufferView" : 2,
            "componentType" : 5126,
            "count" : 8546,
            "type" : "VEC2"
        },
        {
            "bufferView" : 3,
            "componentType" : 5123,
            "count" : 48048,
            "type" : "SCALAR"
        },
        {
            "bufferView" : 4,
            "componentType" : 5126,
            "count" : 40571,
            "max" : [
                33.011253356933594,
                225.28233337402344,
                -26.39032554626465
            ],
            "min" : [
                -33.84916687011719,
                161.12393188476562,
                -126.97845458984375
            ],
            "type" : "VEC3"
        },
        {
            "bufferView" : 5,
            "componentType" : 5126,
            "count" : 40571,
            "type" : "VEC3"
        },
        {
            "bufferView" : 6,
            "componentType" : 5126,
            "count" : 40571,
            "type" : "VEC2"
        },
        {
            "bufferView" : 7,
            "componentType" : 5123,
            "count" : 76140,
            "type" : "SCALAR"
        }
    ],
    "bufferViews" : [
        {
            "buffer" : 0,
            "byteLength" : 102552,
            "byteOffset" : 0,
            "target" : 34962
        },
        {
            "buffer" : 0,
            "byteLength" : 102552,
            "byteOffset" : 102552,
            "target" : 34962
        },
        {
            "buffer" : 0,
            "byteLength" : 68368,
            "byteOffset" : 205104,
            "target" : 34962
        },
        {
            "buffer" : 0,
            "byteLength" : 96096,
            "byteOffset" : 273472,
            "target" : 34963
        },
        {
            "buffer" : 0,
            "byteLength" : 486852,
            "byteOffset" : 369568,
            "target" : 34962
        },
        {
            "buffer" : 0,
            "byteLength" : 486852,
            "byteOffset" : 856420,
            "target" : 34962
        },
        {
            "buffer" : 0,
            "byteLength" : 324568,
            "byteOffset" : 1343272,
            "target" : 34962
        },
        {
            "buffer" : 0,
            "byteLength" : 152280,
            "byteOffset" : 1667840,
            "target" : 34963
        }
    ],
    "buffers" : [
        {
            "byteLength" : 1820120,
            "uri" : "data:application/octet-stream;base64,"
        }
    ]
}
